<?xml version="1.0" standalone="no"?>
<!DOCTYPE svg PUBLIC "-//W3C//DTD SVG 20010904//EN"
 "http://www.w3.org/TR/2001/REC-SVG-20010904/DTD/svg10.dtd">
<svg version="1.0" xmlns="http://www.w3.org/2000/svg"
 width="200.000000pt" height="200.000000pt" viewBox="0 0 200.000000 200.000000"
 preserveAspectRatio="xMidYMid meet">

<g transform="translate(0.000000,200.000000) scale(0.100000,-0.100000)"
fill="#000000" stroke="none">
<path d="M0 1000 l0 -1000 1000 0 1000 0 0 1000 0 1000 -1000 0 -1000 0 0
-1000z m393 216 c21 -8 47 -22 58 -32 17 -15 18 -20 6 -32 -12 -11 -20 -11
-53 7 -54 29 -140 29 -185 -2 -42 -28 -79 -98 -79 -152 0 -50 35 -122 73 -149
42 -31 153 -30 197 2 25 19 34 21 46 12 22 -19 17 -27 -33 -57 -83 -48 -216
-32 -275 34 -51 56 -70 155 -46 237 15 50 80 118 128 133 48 15 118 15 163 -1z
m1125 -213 l2 -213 -50 0 -50 0 0 216 0 215 48 -3 47 -3 3 -212z m400 170 l3
-43 -65 0 -66 0 -2 -167 -3 -168 -52 -3 -53 -3 0 170 0 171 -65 0 -65 0 0 38
c0 21 3 42 7 46 4 3 86 5 182 4 l176 -3 3 -42z m-1187 -95 c75 -42 102 -159
52 -226 -36 -49 -70 -66 -126 -66 -98 0 -157 60 -157 162 0 119 125 190 231
130z m179 0 c5 -13 9 -18 9 -12 1 17 48 34 92 34 31 0 47 -7 69 -28 l28 -28
31 28 c55 49 153 32 186 -32 11 -21 15 -60 15 -140 0 -103 -1 -110 -20 -110
-18 0 -20 7 -20 89 0 97 -12 146 -40 161 -33 18 -79 11 -105 -15 -23 -23 -25
-31 -25 -130 l0 -105 -25 0 -25 0 0 108 c-1 116 -7 134 -54 152 -36 13 -72 3
-96 -27 -17 -22 -20 -41 -20 -129 l0 -104 -25 0 -25 0 0 148 c0 82 3 152 7
155 13 14 34 6 43 -15z"/>
<path d="M625 1053 c-33 -8 -73 -53 -79 -88 -8 -43 14 -98 48 -121 19 -12 39
-15 73 -11 64 7 93 40 93 105 0 56 -20 89 -66 108 -35 15 -36 15 -69 7z"/>
</g>
</svg>
